# xmcd
#
# Track frame offsets: 
#        183
#        14388
#        25268
#        39828
#        52855
#        65395
#        86343
#        113170
#        127830
#        144645
#        153040
#        167298
#        178800
#        191643
#        206693
#        225843
#        240578
#        251033
#
# Disc length: 3623 seconds
#
# Revision: 5
# Processed by: cddbd v1.5.2PL0 Copyright (c) Steve Scherf et al.
# Submitted via: ExactAudioCopy v1.0b3
#
DISCID=d70e2512
DTITLE=Dr John - ZuZu Man
DYEAR=1991
DGENRE=Blues
TTITLE0=Loser for you baby
TTITLE1=The ear is on strike
TTITLE2=A little closer to my home
TTITLE3=I pulled the cover off you two lovers
TTITLE4=Go ahead on
TTITLE5=Just like a mirror
TTITLE6=Bring your love
TTITLE7=Make your own
TTITLE8=The time had come
TTITLE9=New Orleans
TTITLE10=She's just a square
TTITLE11=Bald head
TTITLE12=In the night
TTITLE13=Zuzu man
TTITLE14=Shoo ra
TTITLE15=Tipitina
TTITLE16=One night late
TTITLE17=Mean cheatin' woman
EXTD=
EXTT0=
EXTT1=
EXTT2=
EXTT3=
EXTT4=
EXTT5=
EXTT6=
EXTT7=
EXTT8=
EXTT9=
EXTT10=
EXTT11=
EXTT12=
EXTT13=
EXTT14=
EXTT15=
EXTT16=
EXTT17=
PLAYORDER=
